[info] ffmpeg version 4.2.7-0ubuntu0.1 Copyright (c) 2000-2022 the FFmpeg developers
[info]   built with gcc 9 (Ubuntu 9.4.0-1ubuntu1~20.04.1)
[info]   configuration: --prefix=/usr --extra-version=0ubuntu0.1 --toolchain=hardened --libdir=/usr/lib/x86_64-linux-gnu --incdir=/usr/include/x86_64-linux-gnu --arch=amd64 --enable-gpl --disable-stripping --enable-avresample --disable-filter=resample --enable-avisynth --enable-gnutls --enable-ladspa --enable-libaom --enable-libass --enable-libbluray --enable-libbs2b --enable-libcaca --enable-libcdio --enable-libcodec2 --enable-libflite --enable-libfontconfig --enable-libfreetype --enable-libfribidi --enable-libgme --enable-libgsm --enable-libjack --enable-libmp3lame --enable-libmysofa --enable-libopenjpeg --enable-libopenmpt --enable-libopus --enable-libpulse --enable-librsvg --enable-librubberband --enable-libshine --enable-libsnappy --enable-libsoxr --enable-libspeex --enable-libssh --enable-libtheora --enable-libtwolame --enable-libvidstab --enable-libvorbis --enable-libvpx --enable-libwavpack --enable-libwebp --enable-libx265 --enable-libxml2 --enable-libxvid --enable-libzmq --enable-libzvbi --enable-lv2 --enable-omx --enable-openal --enable-opencl --enable-opengl --enable-sdl2 --enable-libdc1394 --enable-libdrm --enable-libiec61883 --enable-nvenc --enable-chromaprint --enable-frei0r --enable-libx264 --enable-shared
[info]   libavutil      56. 31.100 / 56. 31.100
[info]   libavcodec     58. 54.100 / 58. 54.100
[info]   libavformat    58. 29.100 / 58. 29.100
[info]   libavdevice    58.  8.100 / 58.  8.100
[info]   libavfilter     7. 57.100 /  7. 57.100
[info]   libavresample   4.  0.  0 /  4.  0.  0
[info]   libswscale      5.  5.100 /  5.  5.100
[info]   libswresample   3.  5.100 /  3.  5.100
[info]   libpostproc    55.  5.100 / 55.  5.100
[debug] Splitting the commandline.
[debug] Reading option '-y' ... matched as option 'y' (overwrite output files) with argument '1'.
[debug] Reading option '-f' ... matched as option 'f' (force format) with argument 'x11grab'.
[debug] Reading option '-framerate' ... matched as AVOption 'framerate' with argument '60'.
[debug] Reading option '-video_size' ... matched as AVOption 'video_size' with argument '1366x768'.
[debug] Reading option '-i' ... matched as input url with argument ':0'.
[debug] Reading option '-loglevel' ... matched as option 'loglevel' (set logging level) with argument 'level+debug'.
[debug] Reading option '-pix_fmt' ... matched as option 'pix_fmt' (set pixel format) with argument 'yuv420p'.
[debug] Reading option '-framerate' ... matched as AVOption 'framerate' with argument '15.0'.
[debug] Reading option '-r' ... matched as option 'r' (set frame rate (Hz value, fraction or abbreviation)) with argument '15'.
[debug] Reading option '-vf' ... matched as option 'vf' (set video filters) with argument 'scale=trunc(iw/2)*2:trunc(ih/2)*2'.
[debug] Reading option 'data/video/@buscar_2-BuscarumprodutoquenãoexistenapáginadaPrinti-37047cf5-c0ca-40eb-8163-42a02433968b.mp4' ... matched as output url.
[debug] Finished splitting the commandline.
[debug] Parsing a group of options: global .
[debug] Applying option y (overwrite output files) with argument 1.
[debug] Applying option loglevel (set logging level) with argument level+debug.
[debug] Successfully parsed a group of options.
[debug] Parsing a group of options: input url :0.
[debug] Applying option f (force format) with argument x11grab.
[debug] Successfully parsed a group of options.
[debug] Opening an input file: :0.
[x11grab @ 0x556c9e10b8c0] [debug] Probe buffer size limit of 5000000 bytes reached
[x11grab @ 0x556c9e10b8c0] [warning] Stream #0: not enough frames to estimate rate; consider increasing probesize
[info] Input #0, x11grab, from ':0':
[info]   Duration: N/A, start: 1670365926.760083, bitrate: N/A
[info]     Stream #0:0, 2, 1/1000000: Video: rawvideo, 1 reference frame (BGR[0] / 0x524742), bgr0, 1366x768, 0/1, 60 fps, 1000k tbr, 1000k tbn, 1000k tbc
[debug] Successfully opened the file.
[debug] Parsing a group of options: output url data/video/@buscar_2-BuscarumprodutoquenãoexistenapáginadaPrinti-37047cf5-c0ca-40eb-8163-42a02433968b.mp4.
[debug] Applying option pix_fmt (set pixel format) with argument yuv420p.
[debug] Applying option r (set frame rate (Hz value, fraction or abbreviation)) with argument 15.
[debug] Applying option vf (set video filters) with argument scale=trunc(iw/2)*2:trunc(ih/2)*2.
[debug] Successfully parsed a group of options.
[debug] Opening an output file: data/video/@buscar_2-BuscarumprodutoquenãoexistenapáginadaPrinti-37047cf5-c0ca-40eb-8163-42a02433968b.mp4.
[file @ 0x556c9e11e940] [debug] Setting default whitelist 'file,crypto'
[debug] Successfully opened the file.
[info] Stream mapping:
[info]   Stream #0:0 -> #0:0 (rawvideo (native) -> h264 (libx264))
[info] Press [q] to stop, [?] for help
[warning] Finishing stream 0:0 without any data written to it.
[debug] detected 8 logical cores
[Parsed_scale_0 @ 0x556c9e117300] [debug] Setting 'w' to value 'trunc(iw/2)*2'
[Parsed_scale_0 @ 0x556c9e117300] [debug] Setting 'h' to value 'trunc(ih/2)*2'
[Parsed_scale_0 @ 0x556c9e117300] [debug] Setting 'flags' to value 'bicubic'
[Parsed_scale_0 @ 0x556c9e117300] [verbose] w:trunc(iw/2)*2 h:trunc(ih/2)*2 flags:'bicubic' interl:0
[graph 0 input from stream 0:0 @ 0x556c9e11f380] [debug] Setting 'video_size' to value '1366x768'
[graph 0 input from stream 0:0 @ 0x556c9e11f380] [debug] Setting 'pix_fmt' to value '123'
[graph 0 input from stream 0:0 @ 0x556c9e11f380] [debug] Setting 'time_base' to value '1/1000000'
[graph 0 input from stream 0:0 @ 0x556c9e11f380] [debug] Setting 'pixel_aspect' to value '0/1'
[graph 0 input from stream 0:0 @ 0x556c9e11f380] [debug] Setting 'sws_param' to value 'flags=2'
[graph 0 input from stream 0:0 @ 0x556c9e11f380] [debug] Setting 'frame_rate' to value '60/1'
[graph 0 input from stream 0:0 @ 0x556c9e11f380] [verbose] w:1366 h:768 pixfmt:bgr0 tb:1/1000000 fr:60/1 sar:0/1 sws_param:flags=2
[format @ 0x556c9e120500] [debug] Setting 'pix_fmts' to value 'yuv420p'
[AVFilterGraph @ 0x556c9e11c5c0] [debug] query_formats: 4 queried, 3 merged, 0 already done, 0 delayed
[Parsed_scale_0 @ 0x556c9e117300] [verbose] w:1366 h:768 fmt:bgr0 sar:0/1 -> w:1366 h:768 fmt:yuv420p sar:0/1 flags:0x4
[libx264 @ 0x556c9e119a00] [debug] using mv_range_thread = 24
[libx264 @ 0x556c9e119a00] [info] using cpu capabilities: MMX2 SSE2Fast SSSE3 SSE4.2 AVX FMA3 BMI2 AVX2 AVX512
[libx264 @ 0x556c9e119a00] [info] profile High, level 3.2
[libx264 @ 0x556c9e119a00] [info] 264 - core 155 r2917 0a84d98 - H.264/MPEG-4 AVC codec - Copyleft 2003-2018 - http://www.videolan.org/x264.html - options: cabac=1 ref=3 deblock=1:0:0 analyse=0x3:0x113 me=hex subme=7 psy=1 psy_rd=1.00:0.00 mixed_ref=1 me_range=16 chroma_me=1 trellis=1 8x8dct=1 cqm=0 deadzone=21,11 fast_pskip=1 chroma_qp_offset=-2 threads=12 lookahead_threads=2 sliced_threads=0 nr=0 decimate=1 interlaced=0 bluray_compat=0 constrained_intra=0 bframes=3 b_pyramid=2 b_adapt=1 b_bias=0 direct=1 weightb=1 open_gop=0 weightp=2 keyint=250 keyint_min=15 scenecut=40 intra_refresh=0 rc_lookahead=40 rc=crf mbtree=1 crf=23.0 qcomp=0.60 qpmin=0 qpmax=69 qpstep=4 ip_ratio=1.40 aq=1:1.00
[info] Output #0, mp4, to 'data/video/@buscar_2-BuscarumprodutoquenãoexistenapáginadaPrinti-37047cf5-c0ca-40eb-8163-42a02433968b.mp4':
[info]   Metadata:
[info]     encoder         : Lavf58.29.100
[info]     Stream #0:0, 0, 1/15360: Video: h264 (libx264), 1 reference frame (avc1 / 0x31637661), yuv420p, 1366x768, 0/1, q=-1--1, 15 fps, 15360 tbn, 15 tbc
[info]     Metadata:
[info]       encoder         : Lavc58.54.100 libx264
[info]     Side data:
[info]       cpb: bitrate max/min/avg: 0/0/0 buffer size: 0 vbv_delay: -1
[info] frame=    0 fps=0.0 q=0.0 Lsize=       0kB time=00:00:00.00 bitrate=N/A speed=   0x    
[info] video:0kB audio:0kB subtitle:0kB other streams:0kB global headers:0kB muxing overhead: unknown
[verbose] Input file #0 (:0):
[verbose]   Input stream #0:0 (video): 0 packets read (0 bytes); 0 frames decoded; 
[verbose]   Total: 0 packets (0 bytes) demuxed
[verbose] Output file #0 (data/video/@buscar_2-BuscarumprodutoquenãoexistenapáginadaPrinti-37047cf5-c0ca-40eb-8163-42a02433968b.mp4):
[verbose]   Output stream #0:0 (video): 0 frames encoded; 0 packets muxed (0 bytes); 
[verbose]   Total: 0 packets (0 bytes) muxed
[debug] 0 frames successfully decoded, 0 decoding errors
[AVIOContext @ 0x556c9e11aa00] [verbose] Statistics: 2 seeks, 3 writeouts
